<svg width="24" height="24" viewBox="0 0 24 24"
    xmlns="http://www.w3.org/2000/svg">
    <path d="M4.54383 8.41079C4.38666 7.9955 4.64498 7.55269 5.07389 7.43776C5.5028 7.32284 5.93902 7.58005 6.10652 7.99128C6.53546 9.04439 7.23806 9.96974 8.14778 10.6678C9.27109 11.5297 10.6474 11.9969 12.0633 11.9969C13.4792 11.9969 14.8556 11.5297 15.9789 10.6678C16.8886 9.96974 17.5912 9.04439 18.0201 7.99128C18.1876 7.58005 18.6239 7.32283 19.0528 7.43776C19.4817 7.55269 19.74 7.9955 19.5828 8.41079C19.4304 8.81355 19.2463 9.20224 19.0328 9.57339L21.0009 10.7097C21.3453 10.9085 21.4633 11.3488 21.2645 11.6932C21.0657 12.0376 20.6253 12.1556 20.2809 11.9567L18.2024 10.7567C17.8333 11.1931 17.4166 11.5914 16.9578 11.9435C16.8048 12.0609 16.648 12.1725 16.4878 12.2781L17.6644 14.316C17.8632 14.6603 17.7452 15.1007 17.4009 15.2995C17.0565 15.4983 16.6161 15.3803 16.4173 15.036L15.2187 12.9599C14.4201 13.3006 13.5688 13.511 12.6973 13.5799V15.8697C12.6973 16.2673 12.3749 16.5897 11.9773 16.5897C11.5796 16.5897 11.2573 16.2673 11.2573 15.8697V13.5644C10.4095 13.479 9.583 13.2596 8.80806 12.9165L7.58436 15.036C7.38554 15.3803 6.9452 15.4983 6.60082 15.2995C6.25645 15.1007 6.13846 14.6603 6.33729 14.316L7.5487 12.2177C7.41974 12.1302 7.29308 12.0388 7.16889 11.9435C6.69307 11.5784 6.26259 11.1635 5.88352 10.7081L3.72075 11.9567C3.37637 12.1556 2.93603 12.0376 2.73721 11.6932C2.53838 11.3488 2.65637 10.9085 3.00075 10.7097L5.06288 9.5191C4.86252 9.16439 4.68884 8.79396 4.54383 8.41079Z"/>
</svg>
